<svg width="512" height="512" viewBox="0 0 512 512" xmlns="http://www.w3.org/2000/svg" xmlns:xlink="http://www.w3.org/1999/xlink" fill="#FFFFFF"><path d="M 446.208,256.16c 20.032-22.224, 34.384-44.112, 42.752-65.136 c 9.664-24.40, 9.312-45.584-1.024-62.944c-10.384-17.392-29.408-28.288-56.496-32.368c-23.248-3.52-50.224-2.608-80.464,2.72 c-10.016-27.76-22.608-50.608-37.456-67.984c-17.296-20.224-36.704-30.464-57.632-30.464c-20.992,0.00-40.384,10.304-57.664,30.64 c-14.864,17.472-27.344,40.336-37.168,68.032C 130.80,93.152, 103.84,92.192, 80.592,95.696C 53.504,99.792, 34.496,110.688, 24.08,128.096 c-10.336,17.36-10.688,38.528-1.024,62.928c 8.32,20.976, 22.752,42.848, 42.96,65.104c-20.192,22.304-34.576,44.144-42.80,65.024 c-9.60,24.32-9.184,45.44, 1.184,62.752c 10.352,17.392, 29.312,28.336, 56.304,32.512c 23.168,3.616, 50.128,2.688, 80.368-2.80 c 9.984,27.664, 22.496,50.496, 37.28,67.92c 17.184,20.24, 36.528,30.48, 57.536,30.48c 20.944,0.00, 40.336-10.256, 57.632-30.464 c 14.832-17.36, 27.408-40.256, 37.424-68.128c 30.24,5.76, 57.12,6.864, 80.224,3.264c 26.864-4.176, 45.856-15.072, 56.496-32.512 c 10.352-17.36, 10.704-38.528, 1.008-62.944C 480.352,300.32, 466.096,278.448, 446.208,256.16z M 221.504,460.864 c-10.80-13.776-20.112-32.208-27.728-54.80c 20.992-5.712, 41.92-12.976, 62.352-21.664c 20.512,8.80, 41.408,16.064, 62.336,21.664 c-7.744,22.544-17.168,40.944-28.08,54.752C 268.096,489.088, 243.632,489.088, 221.504,460.864z M 290.368,51.28 c 10.896,13.904, 20.336,32.352, 28.08,54.912c-19.504,5.264-40.384,12.448-62.32,21.472c-21.296-8.672-42.304-16.00-62.608-21.792 c 7.744-22.336, 17.136-40.688, 27.984-54.592C 243.664,22.88, 268.08,22.88, 290.368,51.28z M 375.76,236.864c 8.528,6.688, 16.32,13.168, 23.28,19.392 c-4.736,4.368-9.68,8.704-14.784,12.896c-2.80,2.288-5.632,4.592-8.496,6.928c 0.272-7.04, 0.384-13.792, 0.384-20.192 C 376.16,250.048, 376.032,243.68, 375.76,236.864z M 372.304,192.304c-2.512-21.968-6.496-43.04-11.856-62.832c 24.288-4.784, 45.68-6.192, 63.664-4.16 c 18.352,2.064, 30.656,8.064, 36.528,17.728c 6.00,10.064, 5.344,22.928-2.032,39.312c-7.12,15.904-19.104,32.896-35.68,50.592 C 407.264,218.608, 390.304,204.976, 372.304,192.304z M 256.144,347.776c-14.416-6.40-28.752-13.632-42.608-21.472 c-15.808-9.056-29.328-17.344-40.256-24.64c-1.20-13.328-1.808-28.72-1.808-45.792c0.00-17.056, 0.608-32.336, 1.792-45.504 c 11.84-7.728, 25.536-16.032, 40.64-24.576c 13.60-7.392, 27.776-14.512, 42.224-21.20c 14.40,6.752, 28.592,13.856, 42.064,21.072 c 14.176,8.144, 27.872,16.368, 40.816,24.544c 1.20,13.44, 1.792,28.768, 1.792,45.664c0.00,17.072-0.592,32.544-1.792,46.032 c-12.00,7.872-25.584,16.064-40.512,24.416C 285.104,334.00, 270.896,341.216, 256.144,347.776z M 315.776,156.768 c-5.312-2.992-11.232-6.16-17.696-9.52c 10.24-3.728, 20.128-7.008, 29.552-9.792c 2.32,9.728, 4.32,19.60, 5.968,29.504 C 327.904,163.552, 321.952,160.144, 315.776,156.768z M 184.592,137.536c 9.60,2.912, 19.328,6.176, 29.136,9.76c-6.08,3.072-11.904,6.24-17.44,9.424 c-6.192,3.408-12.144,6.80-17.792,10.192C 180.224,156.912, 182.256,147.072, 184.592,137.536z M 136.528,275.824c-8.608-6.608-16.48-13.184-23.584-19.664 c 7.232-6.512, 15.072-12.992, 23.488-19.392c-0.208,6.24-0.304,12.576-0.304,19.088C 136.144,262.752, 136.272,269.424, 136.528,275.824z M 151.648,128.992 c-5.36,20.384-9.28,41.456-11.664,62.784c-18.56,13.216-35.632,27.024-50.896,41.136c-16.576-17.664-28.608-34.656-35.84-50.608 c-7.408-16.336-8.032-29.152-1.872-39.20c 6.00-9.872, 17.952-15.728, 36.56-17.92c 5.632-0.656, 11.648-0.992, 17.872-0.992 C 119.552,124.192, 134.944,125.808, 151.648,128.992z M 53.408,329.904c 7.152-15.952, 19.056-32.928, 35.424-50.528c 15.424,14.288, 32.576,28.176, 51.136,41.376 c 2.384,21.28, 6.304,42.096, 11.648,62.048c-24.256,4.768-45.632,6.176-63.584,4.176c-18.464-2.096-30.368-7.984-36.432-18.144 C 45.472,358.992, 46.064,346.272, 53.408,329.904z M 195.76,355.12c 5.568,3.312, 11.616,6.608, 18.096,9.904 c-10.128,3.728-19.968,6.96-29.424,9.648c-2.32-9.696-4.272-19.44-5.856-29.136C 184.304,348.944, 190.064,352.16, 195.76,355.12z M 327.648,374.704c-9.536-2.688-19.392-5.904-29.52-9.648c 5.76-2.96, 11.84-6.224, 18.176-9.792c 5.888-3.264, 11.664-6.544, 17.232-9.792 C 331.76,355.904, 329.792,365.664, 327.648,374.704z M 360.32,382.848c 5.232-20.016, 9.152-40.912, 11.68-62.336c 18.464-13.104, 35.536-26.912, 50.88-41.104 c 16.384,17.792, 28.304,34.864, 35.456,50.768c 7.344,16.384, 8.00,29.136, 2.032,39.008c-5.904,9.76-18.16,15.776-36.416,17.92 c-5.36,0.624-11.088,0.96-17.024,0.96C 392.992,388.048, 377.36,386.304, 360.32,382.848z" ></path></svg>
