<svg width="65" height="70" viewBox="0 0 65 70" xmlns="http://www.w3.org/2000/svg"><title>a</title><path d="M21.68 32.36l14.4-2.76v-9c0-9-2.88-12.72-10.56-12.72-2.28 0-3.96.24-5.76.72L15.32 23h-9.6V4.88C11.96 2.96 19.76.68 30.08.68c17.76 0 27.96 4.92 27.96 19.8v38.64l6.24 3.12v4.32c-2.28 1.56-7.2 3-12.48 3-8.28 0-12.24-3-14.04-7.68h-.72c-3.84 4.92-9.12 7.92-17.52 7.92C8.36 69.8.92 63.2.92 51.92c0-11.04 6.72-17.16 20.76-19.56zm8.64 26.4c2.52 0 4.56-.72 5.76-1.92v-20.4l-5.28.6c-5.88.6-8.64 3.96-8.64 11.28 0 8.4 3.36 10.44 8.16 10.44z" fill="#FFF" fill-rule="evenodd"/></svg>