<svg id="Layer_1" xmlns="http://www.w3.org/2000/svg" x="0px" y="0px" viewBox="0 0 128 128" width="20px" height="20px" enable-background="new 0 0 13 13">
    <style>.st0{fill:#FFF}</style>
    <g>
        <path class="st0" d="M58.1 11.6L26.9 42.8 5.4 42.8 -0.2 48.4 -0.2 80 4.9 85.1 26.6 85.1 58.1 116.6 64 116.6 64 11.6z"/>
        <g>
            <path class="st0" d="M117.8,63.9c0,15.7-5.4,30.2-14.3,41.7l3.2,3.2c12.9-10.7,21.2-26.8,21.2-44.9c0-18.1-8.3-34.2-21.2-44.9
			l-3.2,3.2C112.4,33.7,117.8,48.2,117.8,63.9z"/>
        </g>
        <g>
            <path class="st0" d="M87.8,63.9c0,9.1-2.8,17.6-7.5,24.6l3.8,3.8C91.3,85,95.8,75,95.8,63.9S91.3,42.9,84,35.6l-3.8,3.8
			C85,46.4,87.8,54.8,87.8,63.9z"/>
        </g>
    </g>
</svg>