<svg width="18px" height="18px" viewBox="0 0 18 18" xmlns="http://www.w3.org/2000/svg"><title>cta-icon</title><g id="Page-1" fill="none" fill-rule="evenodd"><g id="Artboard" fill-rule="nonzero" fill="#FFFFFF"><path d="M154,163 C149.032,163 145,167.032 145,172 C145,176.968 149.032,181 154,181 C158.968,181 163,176.968 163,172 C163,167.032 158.968,163 154,163 Z M155.269,177.481 L155.269,179.2 L152.866,179.2 L152.866,177.463 C151.327,177.139 150.022,176.149 149.923,174.403 L151.687,174.403 C151.777,175.348 152.425,176.086 154.072,176.086 C155.836,176.086 156.232,175.204 156.232,174.655 C156.232,173.908 155.836,173.206 153.829,172.729 C151.597,172.189 150.067,171.271 150.067,169.426 C150.067,167.878 151.318,166.87 152.866,166.537 L152.866,164.8 L155.269,164.8 L155.269,166.555 C156.943,166.96 157.78,168.229 157.834,169.606 L156.07,169.606 C156.025,168.607 155.494,167.923 154.072,167.923 C152.722,167.923 151.912,168.535 151.912,169.399 C151.912,170.155 152.497,170.65 154.315,171.118 C156.133,171.586 158.077,172.369 158.077,174.637 C158.068,176.284 156.835,177.184 155.269,177.481 Z" id="cta-icon" transform="translate(-145 -163)"/></g></g></svg>