<svg id="Layer_1" xmlns="http://www.w3.org/2000/svg" x="0px" y="0px" width="24px" height="24px" viewBox="0 0 19.972 24" enable-background="new 0 0 19.972 24"><g fill="#FFFFFF"><path d="M11.854,4.21c0.404-0.448,0.657-1.035,0.657-1.685C12.512,1.133,11.379,0,9.987,0
		C8.593,0,7.46,1.133,7.46,2.525c0,0.649,0.253,1.236,0.658,1.685C3.502,5.088,0,9.147,0,14.014C0,19.52,4.479,24,9.987,24
		c5.506,0,9.985-4.48,9.985-9.986C19.972,9.146,16.47,5.087,11.854,4.21z M9.987,1.096c0.788,0,1.429,0.642,1.429,1.43
		c0,0.789-0.641,1.429-1.429,1.429c-0.789,0-1.43-0.64-1.43-1.429C8.557,1.737,9.198,1.096,9.987,1.096z M9.987,22.68
		c-4.763,0-8.639-3.875-8.639-8.641c0-4.762,3.875-8.637,8.639-8.637c4.762,0,8.637,3.875,8.637,8.637
		C18.624,18.805,14.749,22.68,9.987,22.68z"/><path d="M14.263,14.613v-1.226h2.823c-0.312-3.427-3.055-6.156-6.486-6.45v2.467H9.374V6.938
		c-3.432,0.294-6.176,3.023-6.488,6.45h2.506v1.226h-2.51c0.277,3.465,3.034,6.233,6.492,6.529v-2.533H10.6v2.533
		c3.458-0.296,6.213-3.064,6.49-6.529H14.263z M5.01,18.793l3.728-6.044l5.857-3.726l-3.391,6.041L5.01,18.793z"/><path d="M10.002,13.235c-0.363,0-0.659,0.293-0.659,0.661c0,0.364,0.296,0.656,0.659,0.656
		c0.364,0,0.659-0.292,0.659-0.656C10.661,13.528,10.366,13.235,10.002,13.235z"/></g></svg>