<svg width="18px" height="18px" viewBox="0 0 18 18" xmlns="http://www.w3.org/2000/svg"><title>guide-icon</title><g id="Page-1" fill="none" fill-rule="evenodd"><g id="Artboard" fill-rule="nonzero" fill="#FFFFFF"><g id="guide-icon"><path d="M9,8.01 C8.451,8.01 8.01,8.451 8.01,9 C8.01,9.549 8.451,9.99 9,9.99 C9.549,9.99 9.99,9.549 9.99,9 C9.99,8.451 9.549,8.01 9,8.01 Z M9,0 C4.032,0 0,4.032 0,9 C0,13.968 4.032,18 9,18 C13.968,18 18,13.968 18,9 C18,4.032 13.968,0 9,0 Z M10.971,10.971 L3.6,14.4 L7.029,7.029 L14.4,3.6 L10.971,10.971 Z" id="Shape"/></g></g></g></svg>