<svg width="18px" height="18px" viewBox="0 0 18 18" xmlns="http://www.w3.org/2000/svg"><title>qanda-icon</title><g id="Page-1" fill="none" fill-rule="evenodd"><g id="Artboard" fill="#FFFFFF"><g id="qanda-icon"><path d="M0,2 C0,0.9 0.89,0 2,0 L16,0 C17.1,0 18,0.9 18,2 L18,16 C18,17.1 17.1,18 16,18 L2,18 C0.89,18 0,17.1 0,16 L0,2 Z M1.4633187,16.6082264 C1.78508001,16.9127306 2.21965152,17.1 2.7,17.1 L15.3,17.1 C16.29,17.1 17.1,16.29 17.1,15.3 L17.1,2.7 C17.1,2.22566564 16.9140553,1.79265232 16.6114588,1.47025295 C16.2824955,1.1197612 1.1159001,16.2794411 1.4633187,16.6082264 Z M7.2918,8.3745 L7.5834,7.3944 L5.4126,6.8841 L5.4126,6.795 C6.2793,6.6249 6.9516,5.985 6.9516,4.527 L6.9516,4.2435 C6.9516,2.2671 5.931,1.4895 4.5864,1.4895 C3.2823,1.4895 2.1969,2.2914 2.1969,4.2597 L2.1969,4.5432 C2.1969,6.5277 3.096,6.9651 4.311,7.3701 L7.2918,8.3745 Z" id="Combined-Shape" fill-rule="nonzero"/><path d="M4.5783,6.4386 C5.2992,6.4386 5.6637,5.9283 5.6637,4.6242 L5.6637,4.2921 C5.6637,2.9556 5.3559,2.4372 4.5621,2.4372 C3.8331,2.4291 3.4605,2.9637 3.4605,4.1949 L3.4605,4.5432 C3.4605,5.8878 3.8007,6.4386 4.5783,6.4386 Z" id="Q"/><path d="M12.6710526,13.3002947 C12.5943158,13.1152737 12.5252526,12.9080842 12.4792105,12.7315895 L12.3180632,12.1023474 C12.1876105,11.5882105 12.0955263,10.8208421 12.0955263,10.8208421 L12.0111158,10.8208421 C12.0111158,10.8208421 11.9267053,11.5882105 11.7809053,12.1023474 L11.6044105,12.7315895 C11.5506947,12.9080842 11.4739579,13.1238 11.4048947,13.3002947 L12.6710526,13.3002947 Z M11.4654316,9.9 L12.7631368,9.9 L14.3140737,15.2110421 L13.1323263,15.2110421 L12.9626526,14.6201684 C12.9089368,14.4513474 12.8705684,14.2364842 12.8484,14.0446421 L11.2130526,14.0446421 C11.1815053,14.2364842 11.1508105,14.4436737 11.1056211,14.6124947 L10.9444737,15.2110421 L9.9,15.2110421 L11.4654316,9.9 Z" id="Fill-6"/></g></g></g></svg>