<svg width="18px" height="18px" viewBox="0 0 18 18" xmlns="http://www.w3.org/2000/svg"><title>quiz-icon</title><g id="Page-1" fill="none" fill-rule="evenodd"><g id="Artboard" fill="#FFFFFF"><g id="quiz-icon"><path d="M0,11.0009263 C0,11.780038 0.544913758,12.7791688 1.60418308,12.8419965 C2.66369686,12.9050686 3.07342116,12.1257123 3.36898004,12.0474834 C3.72418851,11.9536086 4.01070216,12.2863262 4.01070216,12.7733016 L4.01070216,17.9911748 L9.22099688,17.9911748 C9.70772783,17.9911748 10.0482684,17.7046611 9.95439359,17.3494527 C9.87616461,17.0538938 9.09680837,16.6441695 9.15988048,15.5846557 C9.22270814,14.5251419 10.2218389,13.9804726 11.0009507,13.9804726 C11.7800625,13.9804726 12.7791933,14.5251419 12.8420209,15.5846557 C12.905093,16.6441695 12.1257368,17.0538938 12.0475078,17.3494527 C11.953633,17.7046611 12.2863507,17.9911748 12.7733261,17.9911748 L17.9911992,17.9911748 L17.9911992,12.7657232 C17.9911992,12.2787478 17.7046856,11.9536086 17.3494771,12.0474834 C17.0539182,12.1257123 16.6441939,12.9050686 15.5846802,12.8419965 C14.5251664,12.7791688 13.9804971,11.780038 13.9804971,11.0009263 C13.9804971,10.2218145 14.5251664,9.21510526 15.5846802,9.1522776 C16.6441939,9.08920549 17.0539182,9.86856173 17.3494771,9.94679071 C17.7046856,10.0406655 17.9911992,9.70770338 17.9911992,9.22097243 L17.9911992,4.01067771 L12.7809045,4.01067771 C12.2941736,4.01067771 11.953633,3.72416406 12.0475078,3.36895559 C12.1257368,3.07339671 12.905093,2.66367242 12.8420209,1.60415863 C12.7791933,0.544889311 11.7800625,-2.44465571e-05 11.0009507,-2.44465571e-05 C10.2218389,-2.44465571e-05 9.22270814,0.544889311 9.15988048,1.60415863 C9.09680837,2.66367242 9.87616461,3.07339671 9.95439359,3.36895559 C10.0482684,3.72416406 9.71555073,4.01067771 9.22857531,4.01067771 L4.01070216,4.01067771 L4.01070216,9.22097243 C4.01070216,9.70770338 3.72418851,10.0482439 3.36898004,9.95436914 C3.07342116,9.87614016 2.66369686,9.09678392 1.60418308,9.15985604 C0.544913758,9.22268369 0,10.2218145 0,11.0009263" id="Fill-1"/></g></g></g></svg>