<svg width="14px" height="18px" viewBox="0 0 14 18" xmlns="http://www.w3.org/2000/svg"><title>recipe-icon</title><g id="Page-1" fill="none" fill-rule="evenodd"><g id="Artboard" fill="#FFFFFF"><g id="recipe-icon"><path d="M5.74393673,0.696978744 C5.74393673,0.3448087 5.45843994,0.059311913 5.10632921,0.059311913 C4.75409985,0.059311913 4.46866238,0.3448087 4.46866238,0.696978744 L4.46866238,4.42587642 C4.30607217,4.44153633 4.13405042,4.45494217 3.95574098,4.45494217 L3.50961147,4.45494217 L3.50961147,0.696978744 C3.50961147,0.3448087 3.22411468,0.059311913 2.87200395,0.059311913 C2.51977459,0.059311913 2.23433712,0.3448087 2.23433712,0.696978744 L2.23433712,4.45494217 L1.79805437,4.45494217 C1.61618586,4.45494217 1.440783,4.44100247 1.27528621,4.42498665 L1.27528621,0.696978744 C1.27528621,0.3448087 0.989789422,0.059311913 0.637678695,0.059311913 C0.285449333,0.059311913 1.18635689e-05,0.3448087 1.18635689e-05,0.696978744 L1.18635689e-05,6.4339041 C1.18635689e-05,7.5105823 0.805014335,8.38350371 1.79805437,8.38350371 L1.81727336,8.38350371 C1.81199407,8.4443045 1.80920613,8.50629165 1.80920613,8.56946515 L1.57193475,15.790345 C1.57193475,16.5155057 2.15621552,17.1032862 2.87692734,17.1032862 C3.59763915,17.1032862 4.18191992,16.5155057 4.18191992,15.790345 L3.94464854,8.56946515 C3.94464854,8.50629165 3.94180129,8.4443045 3.93658131,8.38350371 L3.95574098,8.38350371 C4.94878102,8.38350371 5.75384281,7.5105823 5.75384281,6.4339041 L5.74393673,0.696978744 Z" id="Fill-4"/><path d="M13.3168265,4.70215522 C13.3168265,2.13796342 11.9977756,0.0592881859 10.3706871,0.0592881859 C8.74359862,0.0592881859 7.42460702,2.13796342 7.42460702,4.70215522 C7.42460702,7.0828176 8.00455759,8.10349975 9.30913495,8.40892734 C9.30521997,8.46160158 9.30296589,8.51504696 9.30296589,8.56944142 L9.06569451,15.7903806 C9.06569451,16.515482 9.6500346,17.1032625 10.3706871,17.1032625 C11.0913989,17.1032625 11.6756797,16.515482 11.6756797,15.7903806 L11.4384083,8.56944142 C11.4384083,8.51249629 11.4360356,8.45650025 11.4317647,8.40145329 C12.6947603,8.0873653 13.3168265,7.06448838 13.3168265,4.70215522" id="Fill-1"/></g></g></g></svg>