<svg width="18px" height="18px" viewBox="0 0 18 18" xmlns="http://www.w3.org/2000/svg"><title>storyquestions-icon</title><g id="Page-1" fill="none" fill-rule="evenodd"><g id="Artboard" fill-rule="nonzero" fill="#FFFFFF"><path d="M164.1,207.6 L162.3,207.6 L162.3,215.7 L150.6,215.7 L150.6,217.5 C150.6,217.995 151.005,218.4 151.5,218.4 L161.4,218.4 L165,222 L165,208.5 C165,208.005 164.595,207.6 164.1,207.6 Z M160.5,213 L160.5,204.9 C160.5,204.405 160.095,204 159.6,204 L147.9,204 C147.405,204 147,204.405 147,204.9 L147,217.5 L150.6,213.9 L159.6,213.9 C160.095,213.9 160.5,213.495 160.5,213 Z" id="storyquestions-icon" transform="translate(-147 -204)"/></g></g></svg>