<svg width="18px" height="10px" viewBox="0 0 18 10" xmlns="http://www.w3.org/2000/svg"><title>timeline-icon</title><g id="Page-1" fill="none" fill-rule="evenodd"><g id="Artboard" fill-rule="nonzero" fill="#FFFFFF"><path d="M165,417.666667 C165,418.583333 164.263636,419.333333 163.363636,419.333333 C163.216364,419.333333 163.077273,419.316667 162.946364,419.275 L160.033636,422.233333 C160.074545,422.366667 160.090909,422.516667 160.090909,422.666667 C160.090909,423.583333 159.354545,424.333333 158.454545,424.333333 C157.554545,424.333333 156.818182,423.583333 156.818182,422.666667 C156.818182,422.516667 156.834545,422.366667 156.875455,422.233333 L154.789091,420.108333 C154.658182,420.15 154.510909,420.166667 154.363636,420.166667 C154.216364,420.166667 154.069091,420.15 153.938182,420.108333 L150.215455,423.908333 C150.256364,424.041667 150.272727,424.183333 150.272727,424.333333 C150.272727,425.25 149.536364,426 148.636364,426 C147.736364,426 147,425.25 147,424.333333 C147,423.416667 147.736364,422.666667 148.636364,422.666667 C148.783636,422.666667 148.922727,422.683333 149.053636,422.725 L152.784545,418.933333 C152.743636,418.8 152.727273,418.65 152.727273,418.5 C152.727273,417.583333 153.463636,416.833333 154.363636,416.833333 C155.263636,416.833333 156,417.583333 156,418.5 C156,418.65 155.983636,418.8 155.942727,418.933333 L158.029091,421.058333 C158.16,421.016667 158.307273,421 158.454545,421 C158.601818,421 158.749091,421.016667 158.88,421.058333 L161.784545,418.091667 C161.743636,417.958333 161.727273,417.816667 161.727273,417.666667 C161.727273,416.75 162.463636,416 163.363636,416 C164.263636,416 165,416.75 165,417.666667 Z" id="timeline-icon" transform="translate(-147 -416)"/></g></g></svg>